Normalized EMG Linear Envelopes
nRows=135
nColumns=4

endheader
time	 med_gas_r	  soleus_r	 tib_ant_r	
2.86272	  0.024386	  0.030506	  0.017149	
2.93429	  0.024108	  0.030402	  0.016805	
3.00586	  0.023965	  0.030504	  0.016371	
3.07742	  0.023930	  0.030675	  0.016438	
3.14899	  0.023472	  0.030451	  0.016650	
3.22056	  0.022852	  0.029895	  0.016735	
3.29213	  0.022312	  0.029593	  0.016681	
3.3637	  0.022123	  0.029396	  0.016387	
3.43526	  0.022242	  0.029283	  0.016019	
3.50683	  0.022762	  0.029610	  0.016009	
3.5784	  0.023973	  0.030095	  0.016532	
3.64997	  0.025612	  0.030435	  0.016937	
3.72154	  0.027472	  0.030608	  0.016782	
3.7931	  0.028624	  0.030251	  0.016564	
3.86467	  0.028348	  0.029846	  0.016151	
3.93624	  0.026556	  0.029773	  0.015485	
4.00781	  0.025051	  0.029519	  0.015010	
4.07938	  0.024412	  0.029024	  0.015079	
4.15094	  0.023895	  0.028582	  0.015238	
4.22251	  0.022823	  0.028121	  0.015285	
4.29408	  0.021356	  0.027480	  0.015186	
4.36565	  0.021828	  0.027786	  0.015403	
4.43722	  0.032019	  0.031433	  0.016112	
4.50878	  0.061730	  0.041837	  0.017361	
4.58035	  0.117818	  0.061594	  0.019177	
4.65192	  0.191743	  0.087357	  0.021496	
4.72349	  0.262002	  0.110973	  0.023720	
4.79506	  0.327746	  0.123632	  0.025317	
4.86662	  0.369501	  0.118159	  0.024894	
4.93819	  0.359110	  0.108353	  0.022936	
5.00976	  0.333713	  0.103269	  0.021773	
5.08133	  0.316031	  0.105981	  0.022159	
5.1529	  0.308492	  0.109105	  0.022830	
5.22446	  0.312392	  0.110846	  0.022849	
5.29603	  0.296108	  0.106997	  0.022069	
5.3676	  0.254388	  0.096387	  0.021490	
5.43917	  0.234223	  0.091324	  0.022022	
5.51074	  0.229947	  0.088079	  0.022752	
5.5823	  0.231566	  0.090190	  0.023543	
5.65387	  0.250634	  0.099211	  0.024417	
5.72544	  0.259345	  0.104687	  0.024070	
5.79701	  0.266282	  0.107808	  0.023124	
5.86858	  0.278171	  0.110250	  0.021759	
5.94014	  0.267150	  0.106513	  0.019924	
6.01171	  0.265277	  0.105759	  0.018719	
6.08328	  0.262653	  0.103829	  0.018300	
6.15485	  0.245873	  0.093478	  0.018096	
6.22642	  0.238408	  0.083338	  0.018016	
6.29798	  0.229511	  0.073402	  0.018391	
6.36955	  0.217534	  0.065678	  0.019549	
6.44112	  0.215881	  0.063021	  0.020704	
6.51269	  0.202483	  0.064536	  0.020536	
6.58426	  0.182641	  0.071033	  0.020103	
6.65582	  0.171904	  0.073370	  0.019992	
6.72739	  0.167957	  0.068184	  0.019850	
6.79896	  0.180090	  0.064861	  0.019930	
6.87053	  0.185178	  0.061764	  0.020041	
6.9421	  0.180175	  0.059666	  0.020131	
7.01366	  0.159826	  0.056058	  0.020198	
7.08523	  0.120006	  0.050477	  0.020227	
7.1568	  0.102587	  0.050344	  0.021084	
7.22837	  0.121432	  0.055374	  0.021855	
7.29994	  0.168447	  0.060651	  0.021717	
7.3715	  0.227346	  0.066663	  0.022047	
7.44307	  0.248639	  0.069804	  0.022384	
7.51464	  0.245008	  0.071727	  0.022230	
7.58621	  0.227888	  0.069536	  0.021526	
7.65778	  0.201027	  0.066242	  0.020613	
7.72934	  0.182935	  0.065066	  0.019775	
7.80091	  0.167371	  0.065285	  0.019304	
7.87248	  0.157438	  0.066587	  0.019117	
7.94405	  0.156241	  0.069451	  0.018663	
8.01562	  0.155801	  0.071969	  0.018044	
8.08718	  0.146229	  0.072328	  0.017750	
8.15875	  0.139494	  0.070605	  0.017965	
8.23032	  0.139578	  0.065421	  0.018575	
8.30189	  0.153464	  0.061770	  0.019122	
8.37346	  0.174356	  0.063186	  0.019886	
8.44502	  0.182661	  0.066322	  0.020633	
8.51659	  0.182959	  0.069673	  0.021033	
8.58816	  0.183922	  0.071976	  0.021317	
8.65973	  0.197719	  0.075264	  0.021716	
8.7313	  0.220108	  0.077972	  0.021412	
8.80286	  0.230669	  0.077009	  0.020127	
8.87443	  0.225457	  0.073133	  0.018800	
8.946	  0.212546	  0.067881	  0.018118	
9.01757	  0.200805	  0.064012	  0.018284	
9.08914	  0.194129	  0.063311	  0.018841	
9.1607	  0.195055	  0.064101	  0.019134	
9.23227	  0.194555	  0.065263	  0.019221	
9.30384	  0.195071	  0.066331	  0.019653	
9.37541	  0.198112	  0.067188	  0.019995	
9.44698	  0.203829	  0.067475	  0.020044	
9.51854	  0.212716	  0.067529	  0.019695	
9.59011	  0.218599	  0.068050	  0.019071	
9.66168	  0.213770	  0.068244	  0.018387	
9.73325	  0.213366	  0.068368	  0.018061	
9.80482	  0.224042	  0.068614	  0.018218	
9.87638	  0.220176	  0.066135	  0.018469	
9.94795	  0.212863	  0.063462	  0.017562	
10.0195	  0.204120	  0.062612	  0.014933	
10.0911	  0.191528	  0.062167	  0.011986	
10.1627	  0.165659	  0.059926	  0.011219	
10.2342	  0.125553	  0.054457	  0.017825	
10.3058	  0.090962	  0.050262	  0.041190	
10.3774	  0.079188	  0.049349	  0.089640	
10.4489	  0.078664	  0.048510	  0.161225	
10.5205	  0.077895	  0.047989	  0.226224	
10.5921	  0.078870	  0.049809	  0.259757	
10.6636	  0.077744	  0.052465	  0.275519	
10.7352	  0.086632	  0.054248	  0.265310	
10.8068	  0.101727	  0.054219	  0.223440	
10.8783	  0.119560	  0.052439	  0.155988	
10.9499	  0.127991	  0.048070	  0.086810	
11.0215	  0.116354	  0.042640	  0.041799	
11.093	  0.106356	  0.039260	  0.020642	
11.1646	  0.099652	  0.038176	  0.013853	
11.2362	  0.093356	  0.038209	  0.013266	
11.3077	  0.084520	  0.037915	  0.014625	
11.3793	  0.072825	  0.036801	  0.016005	
11.4509	  0.061936	  0.035168	  0.016876	
11.5224	  0.052097	  0.033404	  0.017154	
11.594	  0.045379	  0.032330	  0.017303	
11.6656	  0.040609	  0.031348	  0.017374	
11.7372	  0.036718	  0.030228	  0.017270	
11.8087	  0.033547	  0.029632	  0.016829	
11.8803	  0.030957	  0.030077	  0.016476	
11.9519	  0.029559	  0.030828	  0.016899	
12.0234	  0.029415	  0.030727	  0.018733	
12.095	  0.031134	  0.030381	  0.021842	
12.1666	  0.033548	  0.030439	  0.024786	
12.2381	  0.033487	  0.031165	  0.024082	
12.3097	  0.031793	  0.031913	  0.021022	
12.3813	  0.030474	  0.032049	  0.018491	
12.4528	  0.029901	  0.031941	  0.017275	
